<?xml version="1.0" encoding="UTF-8"?>
<svg version="1.1" xmlns="http://www.w3.org/2000/svg" width="1236" height="2393">
<path d="M0 0 C0.87552521 0.00304138 1.75105042 0.00608276 2.65310669 0.00921631 C15.49988757 0.07516262 27.77729233 0.57902488 40.125 4.4375 C40.84510254 4.65180664 41.56520508 4.86611328 42.30712891 5.08691406 C53.1400279 8.37192912 63.18629453 13.05972566 73.125 18.4375 C74.19621094 19.015 75.26742188 19.5925 76.37109375 20.1875 C96.33280017 31.40135848 114.73565718 47.82887706 128.94921875 65.703125 C130.38363415 67.50580145 131.84430634 69.28793653 133.33203125 71.046875 C169.87712195 114.31216627 183.5982327 169.53657198 179.4375 225.1875 C175.95586628 265.83051127 160.23723006 305.01271702 134.125 336.4375 C133.63805664 337.02595703 133.15111328 337.61441406 132.64941406 338.22070312 C102.86427445 373.96287066 63.69516165 402.73924573 16.125 407.4375 C13.35139556 407.59379358 10.58228587 407.64653049 7.8046875 407.67578125 C7.03193985 407.68562042 6.2591922 407.69545959 5.46302795 407.70559692 C-11.30043813 407.87507866 -27.59293688 407.95111471 -43.875 403.4375 C-44.73754395 403.20144043 -45.60008789 402.96538086 -46.48876953 402.72216797 C-60.06641188 398.87297709 -75.77528292 393.7026054 -86.93481445 384.79296875 C-88.90028767 383.13430602 -88.90028767 383.13430602 -91.9453125 383.515625 C-97.0371873 384.51509114 -101.87681836 386.44582996 -106.75 388.1875 C-135.87669267 398.23692904 -166.01855737 400.56999383 -196.60424805 400.61450195 C-198.5295066 400.62078427 -200.454764 400.62743255 -202.38002014 400.63441467 C-208.6322448 400.65520923 -214.8844691 400.66577863 -221.13671875 400.67578125 C-223.29981816 400.679835 -225.46291745 400.68395209 -227.62601662 400.68813133 C-237.77235511 400.70711143 -247.91868656 400.72136952 -258.06503934 400.7297433 C-269.75648841 400.73955524 -281.44775017 400.76600716 -293.13913316 400.80624419 C-302.20103163 400.83635988 -311.26287611 400.85120696 -320.32482368 400.85452431 C-325.72896537 400.85687551 -331.1329052 400.86584905 -336.53699303 400.89098549 C-341.60725184 400.91419823 -346.67717466 400.91852699 -351.74747276 400.90822411 C-353.60790117 400.90772735 -355.46834582 400.91408874 -357.32872391 400.92778015 C-359.86638047 400.9454146 -362.40281907 400.93843596 -364.94047546 400.92524719 C-366.04619708 400.94170106 -366.04619708 400.94170106 -367.1742565 400.95848733 C-372.01250738 400.897687 -374.4803971 399.87797043 -377.875 396.4375 C-379.7529923 392.68151541 -379.05975762 388.13276018 -379.0625 384 C-379.07474609 383.03255859 -379.08699219 382.06511719 -379.09960938 381.06835938 C-379.10154297 380.13958984 -379.10347656 379.21082031 -379.10546875 378.25390625 C-379.10957764 377.40256104 -379.11368652 376.55121582 -379.11791992 375.67407227 C-378.875 373.4375 -378.875 373.4375 -376.875 370.4375 C-376.215 370.4375 -375.555 370.4375 -374.875 370.4375 C-374.545 369.4475 -374.215 368.4575 -373.875 367.4375 C-358.07064055 359.53532027 -338.54481104 366.4375 -320.875 366.4375 C-320.875 259.8475 -320.875 153.2575 -320.875 43.4375 C-338.035 43.4375 -355.195 43.4375 -372.875 43.4375 C-379.38578755 36.92671245 -379.10075056 34.75946054 -379.1875 26.125 C-379.21650391 25.17431641 -379.24550781 24.22363281 -379.27539062 23.24414062 C-379.31576288 18.80008682 -379.3361984 16.19348501 -376.98046875 12.33203125 C-373.27211752 8.99520315 -370.18366647 9.29372924 -365.41322327 9.30378723 C-364.63427198 9.30152167 -363.8553207 9.29925612 -363.05276483 9.29692191 C-360.42717019 9.29056281 -357.80162691 9.29141257 -355.17602539 9.29223633 C-353.29837985 9.28924545 -351.42073493 9.28584309 -349.54309082 9.28205872 C-344.42378775 9.27319312 -339.30450139 9.27087914 -334.18519139 9.27024293 C-330.97715726 9.26953225 -327.76912737 9.26739726 -324.56109428 9.26474571 C-313.33882249 9.25547396 -302.1165626 9.25141187 -290.89428711 9.25219727 C-280.49059076 9.25279402 -270.08694694 9.2423267 -259.68326384 9.2264536 C-250.7206651 9.21327486 -241.75808327 9.20801787 -232.79547495 9.20865268 C-227.45755991 9.20890526 -222.11969123 9.20619056 -216.78178596 9.19547462 C-132.7230804 9.03877086 -132.7230804 9.03877086 -94.39599609 24.765625 C-90.26621208 25.86626083 -87.64551469 24.85112302 -83.95703125 22.87109375 C-82.87808594 22.21238281 -81.79914063 21.55367187 -80.6875 20.875 C-55.5670514 6.06676666 -29.00830814 -0.21479706 0 0 Z M-33.875 13.4375 C-35.01557861 13.71158691 -35.01557861 13.71158691 -36.17919922 13.99121094 C-53.63453973 18.29759229 -71.30141995 25.61142337 -85.7890625 36.390625 C-89.174593 38.08973019 -91.44308661 36.91031787 -94.90087891 35.76855469 C-96.50763651 35.22495816 -98.11155877 34.67293618 -99.71313477 34.11425781 C-139.74679895 20.17609499 -180.42992079 19.11394842 -222.37337661 19.23471212 C-227.54223186 19.2474032 -232.71109067 19.24840419 -237.87995911 19.25076294 C-247.62201458 19.25692466 -257.36402398 19.27326185 -267.10605937 19.29346192 C-278.21650389 19.31598842 -289.32695087 19.32685602 -300.43741262 19.33685279 C-323.24996795 19.35763422 -346.06247941 19.39311776 -368.875 19.4375 C-368.875 24.0575 -368.875 28.6775 -368.875 33.4375 C-349.735 33.4375 -330.595 33.4375 -310.875 33.4375 C-310.875 146.9575 -310.875 260.4775 -310.875 377.4375 C-313.185 377.1075 -315.495 376.7775 -317.875 376.4375 C-319.69912329 376.35853532 -321.52549239 376.31942143 -323.35131836 376.32397461 C-324.88211281 376.32408791 -324.88211281 376.32408791 -326.4438324 376.32420349 C-327.52326614 376.32936478 -328.60269989 376.33452606 -329.71484375 376.33984375 C-330.83693741 376.3412587 -331.95903107 376.34267365 -333.11512756 376.34413147 C-336.68094608 376.349706 -340.24670062 376.36225384 -343.8125 376.375 C-346.2376293 376.38001829 -348.66275959 376.38458062 -351.08789062 376.38867188 C-357.01695154 376.39966709 -362.94596494 376.41691417 -368.875 376.4375 C-368.875 381.0575 -368.875 385.6775 -368.875 390.4375 C-344.79462028 390.4840032 -320.71425155 390.51959361 -296.63383579 390.54112434 C-285.45029219 390.55139173 -274.26677719 390.56536415 -263.08325195 390.58837891 C-253.3239704 390.60845294 -243.56470957 390.6212493 -233.80540794 390.62567699 C-228.64860745 390.6282609 -223.49186621 390.63423688 -218.33508492 390.64896011 C-155.31039844 390.83593234 -155.31039844 390.83593234 -95.546875 372.50390625 C-92.65653406 371.35030526 -90.94922924 370.99972976 -87.875 371.4375 C-85.54296875 372.6875 -85.54296875 372.6875 -83.0625 374.4375 C-52.40919013 394.74993425 -12.39007804 402.81396194 23.80151367 395.90917969 C25.92024678 395.45627551 28.02172885 394.95733443 30.125 394.4375 C30.88973633 394.25477539 31.65447266 394.07205078 32.44238281 393.88378906 C72.35838106 384.03018431 106.19795103 357.33598389 130.125 324.4375 C130.90230469 323.38175781 131.67960937 322.32601563 132.48046875 321.23828125 C156.23488202 287.99845683 167.94575187 250.074068 170.125 209.4375 C170.18558594 208.35082031 170.24617187 207.26414062 170.30859375 206.14453125 C170.380339 203.2198574 170.28771252 200.35940144 170.125 197.4375 C170.08391113 196.66599609 170.04282227 195.89449219 170.00048828 195.09960938 C167.26484582 147.72842051 149.56456962 104.90658226 118.125 69.4375 C116.96677734 68.11298828 116.96677734 68.11298828 115.78515625 66.76171875 C106.39859092 56.15440503 96.52373793 46.81714545 85.125 38.4375 C84.24134766 37.7873291 84.24134766 37.7873291 83.33984375 37.12402344 C69.11173632 26.81255437 53.09807645 19.04207718 36.125 14.4375 C35.44050781 14.24285156 34.75601562 14.04820312 34.05078125 13.84765625 C12.85566016 8.0256571 -12.58638992 8.05462909 -33.875 13.4375 Z " fill="#FEFEFE" transform="translate(570.875,925.5625)"/>
<path d="M0 0 C0.83894328 -0.00226556 1.67788656 -0.00453111 2.54225236 -0.00686532 C5.37065535 -0.01322571 8.19901067 -0.01237459 11.02742004 -0.0115509 C13.04948489 -0.01454156 15.07154916 -0.01794387 17.09361267 -0.02172852 C22.6051964 -0.03059301 28.11676462 -0.03290796 33.62835479 -0.0335443 C37.07891168 -0.03425467 40.52946461 -0.03638898 43.98002052 -0.03904152 C56.04058202 -0.04831062 68.10113245 -0.0523754 80.16169739 -0.05158997 C91.36072384 -0.05099223 102.55970164 -0.06147988 113.75871581 -0.07733363 C123.39555624 -0.09048387 133.03238096 -0.09577058 142.66923028 -0.09513456 C148.41390552 -0.09488129 154.15853775 -0.09763535 159.90320396 -0.10831261 C165.32783622 -0.11811727 170.75238556 -0.11798966 176.17702103 -0.11079597 C178.14919597 -0.10976453 180.12137641 -0.11202521 182.0935421 -0.11815643 C200.01532528 -0.17017878 218.40257318 0.24721737 235.91731262 4.38371277 C236.86493469 4.60059753 237.81255676 4.8174823 238.78889465 5.04093933 C256.7458616 9.31800108 275.02738528 16.7850127 288.97981262 29.13371277 C289.79707825 29.83238464 290.61434387 30.53105652 291.45637512 31.25090027 C310.78335865 48.12551731 323.25330829 69.61547181 326.97981262 95.13371277 C328.70720118 128.25246257 322.75937308 155.5392547 300.49836731 180.81584167 C272.07663701 212.11975 232.41846935 217.89862023 191.97981262 221.13371277 C171.51981262 221.13371277 151.05981262 221.13371277 129.97981262 221.13371277 C129.97981262 266.01371277 129.97981262 310.89371277 129.97981262 357.13371277 C147.79981262 357.13371277 165.61981262 357.13371277 183.97981262 357.13371277 C190.3717934 363.52569355 190.20284036 365.46139076 190.29231262 373.88371277 C190.32131653 374.77832214 190.35032043 375.67293152 190.38020325 376.59465027 C190.43620562 382.43612855 189.85135032 385.680367 185.97981262 390.13371277 C182.9497347 391.64875173 179.80814444 391.28171443 176.48388672 391.28088379 C175.31055211 391.28639882 175.31055211 391.28639882 174.11351377 391.29202527 C171.47803849 391.30308657 168.84260259 391.30691007 166.20710754 391.31071472 C164.32332228 391.31697748 162.43953827 391.32362411 160.55575562 391.33062744 C155.42760701 391.34805357 150.29946773 391.3585934 145.17129683 391.36683297 C141.96946471 391.37197926 138.7676355 391.37805513 135.56580544 391.3843441 C125.55397091 391.40339989 115.54214378 391.41763072 105.5302946 391.42595607 C93.96208463 391.4357337 82.39406575 391.46206535 70.82592314 391.50245696 C61.89169435 391.53258467 52.95752044 391.54742173 44.02324182 391.55073708 C38.68372493 391.55309122 33.3444121 391.56209893 28.00494957 391.58719826 C22.98248037 391.61042575 17.96035034 391.61473368 12.93784142 391.60443687 C11.09355035 391.60394012 9.2492429 391.61030154 7.40500259 391.62399292 C4.8884889 391.64163116 2.37320305 391.63464615 -0.14331055 391.62145996 C-1.24001099 391.63791383 -1.24001099 391.63791383 -2.35886699 391.6547001 C-7.18138665 391.59362341 -9.63539705 390.55826753 -13.02018738 387.13371277 C-14.89817968 383.37772817 -14.204945 378.82897295 -14.20768738 374.69621277 C-14.21993347 373.72877136 -14.23217957 372.76132996 -14.24479675 371.76457214 C-14.24673035 370.83580261 -14.24866394 369.90703308 -14.25065613 368.95011902 C-14.25476501 368.0987738 -14.2588739 367.24742859 -14.2631073 366.37028503 C-14.02018738 364.13371277 -14.02018738 364.13371277 -12.02018738 361.13371277 C-11.36018738 361.13371277 -10.70018738 361.13371277 -10.02018738 361.13371277 C-9.69018738 360.14371277 -9.36018738 359.15371277 -9.02018738 358.13371277 C7.0822624 350.08248788 26.97672647 357.13371277 44.97981262 357.13371277 C44.97981262 250.54371277 44.97981262 143.95371277 44.97981262 34.13371277 C27.81981262 34.13371277 10.65981262 34.13371277 -7.02018738 34.13371277 C-8.01018738 33.47371277 -9.00018738 32.81371277 -10.02018738 32.13371277 C-10.02018738 31.47371277 -10.02018738 30.81371277 -10.02018738 30.13371277 C-11.01018738 29.80371277 -12.00018738 29.47371277 -13.02018738 29.13371277 C-14.88924085 25.39560582 -14.2913526 20.93540099 -14.33268738 16.82121277 C-14.36169128 15.87052917 -14.39069519 14.91984558 -14.420578 13.94035339 C-14.46095026 9.49629959 -14.48138578 6.88969778 -12.12565613 3.02824402 C-8.29242371 -0.42095399 -4.92781152 -0.0096391 0 0 Z M-4.02018738 10.13371277 C-4.02018738 14.75371277 -4.02018738 19.37371277 -4.02018738 24.13371277 C15.44981262 24.13371277 34.91981262 24.13371277 54.97981262 24.13371277 C54.97981262 137.32371277 54.97981262 250.51371277 54.97981262 367.13371277 C35.50981262 367.13371277 16.03981262 367.13371277 -4.02018738 367.13371277 C-4.02018738 371.75371277 -4.02018738 376.37371277 -4.02018738 381.13371277 C56.69981262 381.13371277 117.41981262 381.13371277 179.97981262 381.13371277 C179.97981262 376.51371277 179.97981262 371.89371277 179.97981262 367.13371277 C172.59975044 367.11112464 165.21970713 367.09277613 157.83961773 367.0819006 C154.41278487 367.07668102 150.98597687 367.06960012 147.55915833 367.05827332 C143.61995236 367.04533431 139.68075649 367.04047691 135.74153137 367.03605652 C133.89454903 367.02831459 133.89454903 367.02831459 132.01025391 367.02041626 C130.86929764 367.02034073 129.72834137 367.0202652 128.55281067 367.02018738 C127.54687363 367.01796677 126.54093658 367.01574615 125.5045166 367.01345825 C122.85300651 367.02557371 122.85300651 367.02557371 119.97981262 368.13371277 C119.97981262 316.32371277 119.97981262 264.51371277 119.97981262 211.13371277 C142.41981262 211.13371277 164.85981262 211.13371277 187.97981262 211.13371277 C229.77830399 207.78983346 268.36824324 202.01959739 296.97981262 169.13371277 C313.11957934 149.13112334 318.63865123 124.45021159 316.97981262 99.13371277 C314.25412075 76.54371038 303.77885919 58.16073981 287.97981262 42.13371277 C286.9028009 41.03736511 286.9028009 41.03736511 285.80403137 39.91886902 C257.39549313 12.90133265 213.93849789 9.9456417 176.93928528 10.02018738 C174.95694988 10.02047002 172.97461439 10.02031002 170.99227905 10.01974487 C165.65235998 10.01945989 160.31246372 10.02530797 154.97254992 10.03231883 C149.37653248 10.03860246 143.78051443 10.03916011 138.18449402 10.04034424 C127.60620583 10.04344285 117.02792806 10.0516363 106.44964445 10.06169373 C94.3987645 10.07290067 82.34788404 10.07837683 70.29700017 10.08338916 C45.52459856 10.09382025 20.75220618 10.11139104 -4.02018738 10.13371277 Z " fill="#FFFFFF" transform="translate(728.0201873779297,936.8662872314453)"/>
<path d="M0 0 C26.73621573 23.56795285 29.59227266 60.83742304 31.73944092 94.15113831 C32.71541724 110.12270406 32.70893828 126.10187821 32.66650391 142.09765625 C32.65519169 146.39569333 32.66184751 150.69348022 32.67338753 154.99150848 C32.71500015 173.34252532 32.40566159 191.64125771 31.47607422 209.97045898 C31.43457497 210.79343916 31.39307571 211.61641933 31.35031891 212.4643383 C27.06228041 295.60934725 27.06228041 295.60934725 -0.20751953 320.75952148 C-22.01988252 338.3481904 -51.86135339 343.46810796 -79.14208984 341.13110352 C-99.79492296 338.73773039 -115.85278722 331.09081629 -130.59423828 316.34936523 C-130.18584936 312.33495711 -128.08400433 310.78133605 -125.03710938 308.29174805 C-124.41658691 307.79513672 -123.79606445 307.29852539 -123.15673828 306.78686523 C-86.59024284 276.3811804 -65.09161226 228.52829576 -60.34423828 181.84936523 C-56.80138986 141.36869736 -63.98705352 100.14376976 -83.59423828 64.34936523 C-84.31189804 63.00182178 -85.02934185 61.65416331 -85.74658203 60.30639648 C-93.37641967 46.16950103 -102.43042863 33.87998577 -113.59423828 22.34936523 C-114.47595703 21.42768555 -115.35767578 20.50600586 -116.26611328 19.55639648 C-120.76763427 14.93892723 -125.1893481 10.87429361 -130.59423828 7.34936523 C-129.89410535 2.32618928 -126.62934207 0.43779089 -122.78564453 -2.49829102 C-87.66795968 -26.18231103 -33.42231521 -27.94733081 0 0 Z M-114.59423828 4.34936523 C-113.3019299 7.21195167 -111.9699061 9.19521787 -109.68798828 11.34545898 C-109.1140332 11.8970166 -108.54007813 12.44857422 -107.94873047 13.0168457 C-107.33674805 13.60095215 -106.72476563 14.18505859 -106.09423828 14.78686523 C-69.77983169 50.38612878 -50.27612944 103.72346901 -49.42626953 154.00561523 C-49.02692755 213.35298666 -67.40344516 265.3633966 -109.28955078 308.09936523 C-111.3790914 310.19545613 -113.47806031 312.28021344 -115.59423828 314.34936523 C-113.91837552 319.37695353 -109.1064496 320.95795617 -104.59423828 323.34936523 C-94.4441722 328.31677115 -82.85010991 330.72086479 -71.59423828 331.34936523 C-70.65708984 331.4022168 -69.71994141 331.45506836 -68.75439453 331.50952148 C-47.16689681 332.12325751 -22.54341863 325.45457258 -5.71923828 311.59936523 C17.03563452 289.88447748 17.88736389 252.67828721 20.40576172 223.34936523 C20.49824188 222.27634155 20.49824188 222.27634155 20.59259033 221.18164062 C22.57633192 197.5957127 22.60754395 173.93628584 22.65074158 150.28340149 C22.65566422 147.95792456 22.66357231 145.63247341 22.67199707 143.30700684 C22.72204377 127.1967706 22.51197478 111.14250185 21.50341797 95.06030273 C21.42436218 93.79638199 21.3453064 92.53246124 21.26385498 91.23023987 C19.33562636 63.17264823 16.34455929 32.92057898 -3.59423828 11.34936523 C-4.16271484 10.72674805 -4.73119141 10.10413086 -5.31689453 9.46264648 C-20.16447964 -5.05861807 -44.0035796 -10.04556287 -64.01074219 -9.953125 C-82.00354699 -9.52089561 -98.8310653 -4.1926894 -114.59423828 4.34936523 Z " fill="#FFFFFF" transform="translate(631.59423828125,968.650634765625)"/>
<path d="M0 0 C114.77678571 0 114.77678571 0 137 19 C136.52174102 23.29436708 134.04660355 25.18938359 131 28.0625 C125.52289267 33.36556177 120.66454118 38.95981447 116 45 C115.57750977 45.54076172 115.15501953 46.08152344 114.71972656 46.63867188 C81.20675159 89.77224521 67.32652784 144.94723684 73.59765625 199.00048828 C79.7878473 245.14896352 104.03370699 287.6171812 137 320 C133.88327083 327.69916342 124.26131417 331.80031179 117.00390625 334.87890625 C80.66576731 348.44073444 36.46324357 343.52022048 0 344 C0 230.48 0 116.96 0 0 Z M10 10 C10 116.59 10 223.18 10 333 C66.05620658 336.3105517 66.05620658 336.3105517 121 321 C119.67039266 317.09299996 118.06609039 314.74449652 115.1875 311.8125 C104.45319755 300.19663648 95.73069645 286.75645709 88 273 C87.6292334 272.35272949 87.2584668 271.70545898 86.87646484 271.03857422 C60.06340378 223.98148068 55.49838827 167.05727058 69 115 C77.46969231 84.24780866 91.90696031 56.59092918 112.96875 32.6171875 C113.48042725 32.02848877 113.99210449 31.43979004 114.51928711 30.83325195 C115.53117435 29.67216697 116.55256674 28.51928308 117.58422852 27.37573242 C119.143134 25.6371154 119.143134 25.6371154 121 23 C120.505 21.515 120.505 21.515 120 20 C88.68713403 4.81944644 39.14148242 10 10 10 Z " fill="#FFFFFF" transform="translate(325,959)"/>
<path d="M0 0 C92.75619835 0 92.75619835 0 110.05859375 15.890625 C127.32828323 33.53061971 129.40471775 59.68404144 129.23413086 83.11743164 C128.64425229 111.18144486 124.98745892 136.86594679 104 157 C103.3709375 157.62519531 102.741875 158.25039062 102.09375 158.89453125 C78.51152074 180.86382502 22.44542134 173 0 173 C0 115.91 0 58.82 0 0 Z M10 10 C10 60.49 10 110.98 10 163 C42.75040768 163.86501916 42.75040768 163.86501916 75 160 C76.25425781 159.73316406 77.50851562 159.46632813 78.80078125 159.19140625 C92.15607439 155.72549973 100.7454464 147.46072913 108 136 C122.5316547 111.09921062 122.10081323 73.13102387 115 46 C111.22972382 33.40006969 104.49773227 22.59430821 92.9375 15.78515625 C69.5473574 5.02406634 30.98441023 10 10 10 Z " fill="#FFFFFF" transform="translate(848,961)"/>
<path d="M0 0 C3 1 3 1 4.4296875 3.5625 C9.91887577 16.6178667 13.77242277 29.5906956 16.1875 43.5625 C16.34234863 44.4395459 16.49719727 45.3165918 16.65673828 46.22021484 C20.0293043 67.14186762 20.33882002 88.23533358 20.25 109.375 C20.24534729 111.34924454 20.24534729 111.34924454 20.24060059 113.3633728 C20.13168763 156.72349052 18.94791282 200.18947028 3 241 C2.01 241 1.02 241 0 241 C-5.13670125 222.04374717 -6.92727987 202.76543185 -8.0703125 183.203125 C-8.11374535 182.4606741 -8.15717819 181.71822319 -8.20192719 180.95327377 C-9.19882468 163.42490179 -9.30696429 145.91025798 -9.26074219 128.35791016 C-9.24936678 124.00377148 -9.25612937 119.64987805 -9.26762581 115.29574776 C-9.30746692 97.44210681 -9.05292879 79.64162295 -8.0703125 61.8125 C-8.02881325 61.05703007 -7.987314 60.30156013 -7.94455719 59.52319717 C-6.81132498 39.39505374 -4.66013834 19.63408541 0 0 Z M4 41 C3.6788451 44.37423005 3.36995864 47.74949668 3.0625 51.125 C2.97548828 52.03765625 2.88847656 52.9503125 2.79882812 53.890625 C0.89810241 75.00979966 0.81191353 96.16731789 0.81469727 117.35327148 C0.81477794 120.552874 0.80791306 123.75233151 0.79418945 126.9519043 C0.69802683 149.70767774 1.43060713 172.29703566 3 195 C3.66 195 4.32 195 5 195 C11.93854722 145.01186922 14.78808984 90.76345291 5 41 C4.67 41 4.34 41 4 41 Z " fill="#FEFEFE" transform="translate(482,1008)"/>
</svg>
